<?xml version="1.0" encoding="UTF-8"?>
<svg xmlns="http://www.w3.org/2000/svg" xmlns:xlink="http://www.w3.org/1999/xlink" width="83pt" height="84pt" viewBox="0 0 83 84" version="1.1">
<g id="surface1">
<path style=" stroke:none;fill-rule:evenodd;fill:rgb(76.078431%,57.254902%,8.627451%);fill-opacity:1;" d="M 43.984375 84.011719 C 47.195312 84.011719 48.480469 83.609375 51.054688 82.332031 C 52.410156 81.660156 54.421875 80.023438 55.648438 79.023438 C 59.328125 76.023438 61.988281 74.535156 61.988281 68.386719 C 61.988281 63.316406 57.183594 58.472656 51.554688 58.472656 C 46.730469 58.472656 44.375 61.566406 41.457031 63.515625 C 41.035156 62.882812 39.027344 61.289062 38.300781 60.617188 C 37.25 59.644531 36.191406 58.550781 35.1875 57.511719 L 26.75 47.285156 L 24.261719 43.550781 C 23.621094 42.554688 20.015625 36.75 19.75 35.621094 C 20.042969 35.1875 22.558594 33.304688 23.335938 32.648438 C 27.285156 29.335938 28.269531 24.28125 26.035156 19.773438 C 23.304688 14.265625 15.695312 12.304688 10.757812 16.058594 C 9.933594 16.683594 9.246094 17.226562 8.476562 17.8125 C 7.675781 18.421875 6.914062 19.058594 6.121094 19.664062 C 2.808594 22.1875 0.445312 25.429688 0.0664062 29.914062 C -0.140625 32.355469 0.148438 34.734375 1.007812 36.691406 C 1.488281 37.773438 1.808594 38.398438 2.382812 39.351562 C 2.921875 40.253906 3.398438 41.097656 3.964844 41.972656 C 6.246094 45.496094 8.003906 48.417969 10.496094 51.921875 C 14.738281 57.886719 17.175781 60.695312 21.167969 65.792969 C 21.765625 66.558594 22.449219 67.1875 23.042969 67.953125 L 27.867188 73.386719 C 28.214844 73.761719 28.511719 74.027344 28.878906 74.394531 C 30.308594 75.820312 31.496094 77.167969 32.917969 78.59375 C 35.972656 81.652344 39.1875 84.011719 43.984375 84.011719 Z M 43.984375 84.011719 "/>
<path style=" stroke:none;fill-rule:evenodd;fill:rgb(76.078431%,57.254902%,8.627451%);fill-opacity:1;" d="M 17.898438 11.59375 C 19.964844 11.59375 22 12.757812 22.78125 12.9375 C 23.171875 12.675781 23.398438 12.402344 23.789062 12.097656 C 30.386719 6.960938 36.667969 4.367188 45.835938 4.367188 C 60.101562 4.367188 72.554688 14.257812 76.90625 27.285156 C 80.46875 37.953125 78.144531 50.175781 71.285156 58.511719 C 70.488281 59.480469 68.9375 61.339844 68.074219 62.027344 C 67.382812 62.574219 66.957031 63 66.25 63.566406 C 65.746094 63.976562 64.753906 64.871094 64.179688 65.027344 C 64.179688 66.292969 65.050781 68.785156 64.515625 69.898438 C 66.453125 69.738281 73.246094 63.230469 74.996094 60.875 C 76.234375 59.210938 77.167969 58.019531 78.148438 56.121094 C 82.972656 46.777344 84.390625 37.488281 81.441406 27.121094 C 76.980469 11.433594 61.96875 0 45.667969 0 C 36.28125 0 27.261719 3.128906 20.382812 9.199219 Z M 17.898438 11.59375 "/>
<path style=" stroke:none;fill-rule:evenodd;fill:rgb(76.078431%,57.254902%,8.627451%);fill-opacity:1;" d="M 59.972656 31.085938 L 59.972656 39.824219 L 54.585938 39.824219 C 54.640625 39.164062 55.355469 38.332031 55.867188 37.570312 L 59.765625 31.386719 C 59.972656 31.027344 59.808594 31.273438 59.972656 31.085938 Z M 59.800781 26.042969 L 53.070312 36.96875 C 50.320312 41.117188 50.851562 40.269531 51.054688 42.679688 L 59.972656 42.679688 L 59.972656 47.382812 L 63.503906 47.382812 L 63.503906 42.679688 L 66.199219 42.679688 L 66.199219 39.824219 C 64.367188 39.824219 63.503906 40.078125 63.503906 39.316406 L 63.503906 26.042969 C 62.519531 26.042969 62.550781 25.910156 61.78125 25.992188 C 61.113281 26.066406 60.484375 26.042969 59.800781 26.042969 Z M 59.800781 26.042969 "/>
<path style=" stroke:none;fill-rule:evenodd;fill:rgb(76.078431%,57.254902%,8.627451%);fill-opacity:1;" d="M 34.558594 31.421875 L 34.558594 32.261719 L 37.925781 32.261719 C 38.371094 30.359375 38.511719 28.566406 41.628906 28.566406 C 43.863281 28.566406 44.742188 30.601562 44.25 32.691406 C 43.710938 34.984375 39.113281 40.175781 37.207031 42.128906 C 36.808594 42.542969 36.75 42.726562 36.367188 43.140625 C 34.3125 45.347656 34.726562 44.671875 34.726562 47.382812 L 48.695312 47.382812 L 48.695312 44.527344 L 39.441406 44.527344 C 39.601562 43.925781 43.507812 39.726562 44.28125 38.777344 C 45.113281 37.757812 45.851562 36.832031 46.601562 35.71875 C 49.960938 30.710938 46.871094 25.707031 41.964844 25.707031 L 40.617188 25.707031 C 37.605469 25.707031 34.558594 28.40625 34.558594 31.421875 Z M 34.558594 31.421875 "/>
</g>
</svg>
