<?xml version="1.0" encoding="UTF-8"?>
<!DOCTYPE svg PUBLIC "-//W3C//DTD SVG 1.1//EN" "http://www.w3.org/Graphics/SVG/1.1/DTD/svg11.dtd">
<!-- Creator: CorelDRAW X8 -->
<svg xmlns="http://www.w3.org/2000/svg" xml:space="preserve" width="96.6724mm" height="108.204mm" version="1.1" style="shape-rendering:geometricPrecision; text-rendering:geometricPrecision; image-rendering:optimizeQuality; fill-rule:evenodd; clip-rule:evenodd"
viewBox="0 0 9667 10820"
 xmlns:xlink="http://www.w3.org/1999/xlink">
 <defs>
  <style type="text/css">
   <![CDATA[
    .fil0 {fill:#C29216}
   ]]>
  </style>
 </defs>
 <g id="Layer_x0020_1">
  <metadata id="CorelCorpID_0Corel-Layer"/>
  <g id="_1715603479600">
   <path class="fil0" d="M7333 6179c39,517 0,1158 4,1691 4,563 3,1130 0,1694 -7,987 145,851 -845,854l-3365 1c-971,0 -792,87 -801,-878 -5,-563 -1,-1130 1,-1694 2,-519 -37,-1165 4,-1669l763 8c27,508 4,1440 3,2023 0,203 -41,489 209,474 228,-15 175,-289 176,-497 2,-569 -27,-1531 6,-2007l378 4c10,256 2,526 2,783 0,203 -67,578 205,560 247,-17 179,-348 180,-582 1,-248 -11,-521 4,-765l3076 0zm-5776 3l383 -3 1 871 -51 -38c-153,-115 -151,-34 -335,-74l2 -756zm382 2501c-44,287 -9,918 -9,1242 0,252 -21,394 67,566 70,137 193,237 342,291 192,69 2096,24 2482,24 377,0 2310,38 2489,-18 147,-47 285,-153 350,-282 83,-163 75,-322 75,-558 0,-254 -38,-1087 19,-1270 -67,-28 -36,-119 -35,-289l0 -948c1,-410 -9,-846 5,-1253l382 -7 2 755c-73,19 -502,-40 -359,324 107,85 124,76 302,75 532,-2 440,-13 443,-685 4,-943 86,-860 -646,-857l-6053 0c-750,-4 -618,-58 -626,880 -1,212 -58,586 116,646 68,23 602,59 640,-75 2,-8 9,-9 15,-13l-1 1452z"/>
   <path class="fil0" d="M1569 8676c-77,-125 -34,-176 -247,-185 -321,-14 -645,-21 -845,-433 -137,-281 -78,-1272 -78,-1656 -2,-1159 5,-2319 0,-3478 -2,-577 -10,-1165 0,-1740 5,-271 118,-477 260,-593 201,-165 361,-194 684,-194l6956 0c301,1 479,2 682,174 146,124 276,305 283,591 16,571 0,1165 1,1739 1,1159 -5,2319 -1,3478 2,366 52,1397 -70,1662 -86,185 -241,335 -450,410 -136,48 -232,37 -378,40 -243,5 -187,50 -270,184 32,162 74,212 270,212 450,2 728,-94 1023,-424 364,-408 265,-1059 265,-1677 0,-101 22,-5595 -5,-5777 -74,-499 -451,-896 -955,-987 -221,-40 -6039,-12 -6741,-12 -253,0 -740,-27 -963,8 -500,80 -878,460 -968,953 -42,234 -9,6120 -12,6764 -3,532 362,956 838,1104 126,40 261,50 428,48 198,-1 259,-47 293,-211z"/>
   <path class="fil0" d="M7309 4634l-4956 1c-50,-37 -20,47 -38,-84 0,-6 1,-79 1,-91l1 -588c2,-340 -16,-2152 7,-2316 119,-36 4903,-34 5015,1 25,219 6,549 5,779l1 1943c1,142 29,328 -36,355zm-5219 -3457c-192,50 -150,248 -149,437 1,202 1,407 0,609l-1 2395c-2,499 41,400 803,405l3614 0c1592,9 1363,238 1365,-1061l1 -2394c1,-206 13,-390 -214,-400 -197,-9 -411,1 -610,0 -221,-1 -4703,-19 -4809,9z"/>
   <path class="fil0" d="M6058 8514c619,-209 532,758 482,895 -36,101 -141,193 -250,224 -314,89 -492,-148 -495,-430 -4,-330 -28,-591 263,-689zm-645 824c40,449 479,811 996,662 543,-156 575,-701 540,-1183 -34,-457 -488,-846 -1016,-670 -472,157 -574,593 -520,1191z"/>
   <path class="fil0" d="M2353 4635c-31,-141 -16,-594 -13,-763 5,-256 0,-512 -1,-768 -1,-514 1,-1028 1,-1542l4982 1 -13 3071c65,-27 37,-213 36,-355l-1 -1943c1,-230 20,-560 -5,-779 -112,-35 -4896,-37 -5015,-1 -23,164 -5,1976 -7,2316l-1 588c0,12 -1,85 -1,91 18,131 -12,47 38,84z"/>
   <path class="fil0" d="M936 4066c-143,40 -217,235 -80,338 78,59 429,60 551,32 161,-37 207,-256 58,-347 -68,-42 -443,-47 -529,-23z"/>
   <path class="fil0" d="M8249 3296c-183,57 -176,285 -43,354 71,36 467,39 556,8 148,-51 153,-262 24,-341 -67,-40 -459,-45 -537,-21z"/>
   <path class="fil0" d="M908 1761c-157,57 -157,271 -33,342 74,42 455,45 546,16 159,-51 181,-275 36,-348 -79,-39 -466,-40 -549,-10z"/>
   <path class="fil0" d="M8256 4068c-187,51 -188,284 -51,351 80,39 473,38 559,9 142,-49 154,-264 20,-341 -75,-43 -443,-42 -528,-19z"/>
   <path class="fil0" d="M904 2542c-219,102 -94,305 -17,340 71,33 474,36 553,3 149,-60 144,-290 -2,-350 -100,-42 -448,-33 -534,7z"/>
   <path class="fil0" d="M8230 1764c-158,67 -167,285 -3,350 81,32 476,29 546,-4 128,-61 143,-280 6,-343 -77,-35 -473,-36 -549,-3z"/>
   <path class="fil0" d="M8236 2535c-177,77 -164,293 -12,351 79,30 484,27 553,-5 135,-64 130,-280 -2,-342 -76,-36 -465,-37 -539,-4z"/>
   <path class="fil0" d="M920 3303c-161,63 -184,266 -49,341 71,39 462,45 555,17 163,-49 156,-281 25,-350 -70,-37 -459,-37 -531,-8z"/>
   <path class="fil0" d="M5796 7554c23,251 626,245 573,-59 -28,-156 -161,-165 -329,-162 -144,3 -258,67 -244,221z"/>
   <path class="fil0" d="M5798 6786c24,235 622,253 571,-60 -25,-154 -158,-167 -329,-162 -152,4 -259,56 -242,222z"/>
  </g>
 </g>
</svg>
