<?xml version="1.0" encoding="UTF-8"?>
<svg xmlns="http://www.w3.org/2000/svg" xmlns:xlink="http://www.w3.org/1999/xlink" width="83pt" height="88pt" viewBox="0 0 83 88" version="1.1">
<g id="surface1">
<path style=" stroke:none;fill-rule:evenodd;fill:rgb(76.078431%,57.254902%,8.627451%);fill-opacity:1;" d="M 16.4375 81.976562 L 42.996094 81.976562 L 42.996094 84.902344 L 16.4375 84.902344 Z M 44.839844 75.574219 C 41.839844 75.574219 40.875 70.636719 45.207031 70.636719 C 48.011719 70.636719 48.1875 75.574219 44.839844 75.574219 Z M 14.226562 70.636719 L 14.964844 70.636719 C 17.769531 70.636719 17.941406 75.574219 14.59375 75.574219 C 11.246094 75.574219 11.421875 70.636719 14.226562 70.636719 Z M 15.886719 52.707031 L 43.363281 52.707031 L 47.972656 64.230469 L 11.273438 64.230469 Z M 58.117188 49.597656 C 57.21875 49.597656 56.644531 49.355469 56.644531 48.3125 L 56.644531 33.679688 C 56.644531 32.792969 57.226562 32.214844 58.117188 32.214844 C 62.921875 32.214844 67.320312 31.394531 69.3125 35.5625 C 70.421875 37.890625 69.699219 40.601562 68.222656 42.058594 C 64.734375 45.496094 59.777344 42.507812 59.40625 44.289062 C 59.050781 45.984375 60.371094 49.597656 58.117188 49.597656 Z M 45.945312 38.621094 C 45.945312 43.929688 47.070312 47.042969 50.324219 50.738281 L 52.289062 52.449219 C 54.5 54.109375 57.734375 55.632812 60.699219 55.632812 L 60.699219 84.902344 L 51.847656 84.902344 L 51.847656 81.246094 C 53.21875 80.929688 54.796875 79.460938 54.796875 77.769531 L 54.796875 68.4375 C 54.796875 65.695312 51.960938 65.269531 51.414062 64.476562 L 46.078125 51.292969 C 45.65625 50.203125 45.378906 49.597656 43.917969 49.597656 L 15.148438 49.597656 C 13.953125 49.597656 13.585938 50.414062 13.222656 51.34375 L 7.964844 64.421875 C 7.363281 65.640625 4.636719 65.648438 4.636719 68.4375 L 4.636719 77.769531 C 4.636719 79.523438 6.148438 80.914062 7.585938 81.246094 L 7.585938 84.902344 L 1.5 84.902344 C -0.421875 84.902344 -0.761719 88.015625 2.054688 88.015625 L 68.996094 88.015625 C 72.222656 88.015625 71.253906 84.902344 69.917969 84.902344 L 63.652344 84.902344 L 63.652344 55.632812 C 68.757812 55.632812 73.28125 52.058594 75.824219 48.5 C 82.519531 39.125 76.476562 23.433594 61.804688 23.433594 C 57.308594 23.433594 53.140625 25.691406 50.878906 27.960938 C 49.488281 29.355469 48.515625 30.589844 47.601562 32.394531 C 46.816406 33.949219 45.945312 36.296875 45.945312 38.621094 Z M 45.945312 38.621094 "/>
<path style=" stroke:none;fill-rule:evenodd;fill:rgb(76.078431%,57.254902%,8.627451%);fill-opacity:1;" d="M 41.335938 6.605469 C 41.335938 7.324219 42.253906 8.25 42.996094 8.25 C 43.242188 8.25 46.238281 6.625 46.804688 6.359375 C 55.96875 1.980469 68.058594 2.128906 77.292969 6.238281 C 77.957031 6.535156 78.554688 6.863281 79.261719 7.214844 C 80.636719 7.886719 80.6875 8.25 81.351562 8.25 C 82.175781 8.25 83.011719 7.511719 83.011719 6.789062 C 83.011719 5.589844 82.234375 5.472656 81.417969 5.078125 C 78.699219 3.761719 77.808594 3.144531 74.371094 2.007812 C 66.292969 -0.664062 58.089844 -0.675781 49.976562 2.007812 C 45.746094 3.40625 46.03125 3.617188 43.058594 5.019531 C 42.292969 5.382812 41.335938 5.589844 41.335938 6.605469 Z M 41.335938 6.605469 "/>
<path style=" stroke:none;fill-rule:evenodd;fill:rgb(76.078431%,57.254902%,8.627451%);fill-opacity:1;" d="M 44.46875 11.726562 C 44.46875 13.046875 45.003906 13.191406 46.132812 13.191406 C 46.6875 13.191406 48.339844 12.175781 49.261719 11.722656 C 56.921875 7.976562 67.183594 8.066406 74.960938 11.664062 C 75.582031 11.953125 75.898438 12 76.484375 12.347656 C 77.75 13.097656 77.519531 13.191406 78.585938 13.191406 C 79.640625 13.191406 79.878906 12.617188 79.878906 11.726562 C 79.878906 9.949219 74.351562 8.097656 72.800781 7.585938 C 63.996094 4.671875 53.75 5.507812 45.765625 10.082031 C 45.050781 10.492188 44.46875 10.894531 44.46875 11.726562 Z M 44.46875 11.726562 "/>
<path style=" stroke:none;fill-rule:evenodd;fill:rgb(76.078431%,57.254902%,8.627451%);fill-opacity:1;" d="M 48.894531 18.3125 C 50.234375 18.3125 60.816406 10.734375 73.976562 17.765625 C 77.011719 19.386719 77.941406 16.476562 76.191406 15.382812 C 75.777344 15.121094 75.117188 14.855469 74.589844 14.59375 C 66.34375 10.480469 56.230469 10.832031 48.273438 15.316406 C 46.675781 16.21875 47.183594 18.3125 48.894531 18.3125 Z M 48.894531 18.3125 "/>
<path style=" stroke:none;fill-rule:evenodd;fill:rgb(76.078431%,57.254902%,8.627451%);fill-opacity:1;" d="M 51.664062 23.253906 C 53.195312 23.253906 53.859375 22.269531 56.085938 21.605469 C 60.414062 20.316406 63.960938 20.335938 68.261719 21.605469 C 68.96875 21.8125 69.570312 22.066406 70.230469 22.398438 C 71.289062 22.921875 71.542969 23.253906 72.6875 23.253906 C 73.582031 23.253906 74.53125 21.539062 73.347656 20.582031 C 72.273438 19.714844 68.160156 18.339844 66.496094 18.050781 L 62.175781 17.570312 L 58.011719 18.023438 C 56.617188 18.28125 55.453125 18.632812 54.269531 19.070312 C 53.511719 19.351562 51.71875 20.085938 51.109375 20.507812 C 49.773438 21.425781 50.726562 23.253906 51.664062 23.253906 Z M 51.664062 23.253906 "/>
<path style=" stroke:none;fill-rule:evenodd;fill:rgb(76.078431%,57.254902%,8.627451%);fill-opacity:1;" d="M 59.40625 35.507812 L 59.40625 40.996094 C 63.789062 40.996094 66.96875 41.746094 66.96875 37.519531 C 66.96875 36.085938 65.355469 34.960938 63.464844 34.960938 C 60.980469 34.960938 59.40625 34.59375 59.40625 35.507812 Z M 59.40625 35.507812 "/>
</g>
</svg>
