<?xml version="1.0" encoding="UTF-8"?>
<svg xmlns="http://www.w3.org/2000/svg" xmlns:xlink="http://www.w3.org/1999/xlink" width="62pt" height="58pt" viewBox="0 0 62 58" version="1.1">
<g id="surface1">
<path style=" stroke:none;fill-rule:evenodd;fill:rgb(76.078431%,57.254902%,8.627451%);fill-opacity:1;" d="M 23.445312 56.484375 C 22.328125 56.484375 22.289062 56.117188 21.605469 54.730469 L 21.203125 53.984375 C 22.640625 53.984375 23.496094 53.605469 25.035156 53.199219 L 30.535156 51.699219 C 32.21875 51.265625 34.507812 50.550781 36.035156 50.199219 C 35.859375 50.4375 34.894531 50.835938 34.539062 51.011719 L 32.203125 52.199219 C 30.597656 52.988281 28.179688 54.132812 26.671875 54.953125 C 26.132812 55.25 25.640625 55.476562 25.085938 55.746094 C 24.78125 55.898438 23.722656 56.484375 23.445312 56.484375 Z M 19.828125 49.199219 C 20.042969 49.21875 20.320312 49.304688 20.496094 49.328125 L 33.503906 49.34375 L 24.675781 51.773438 C 24.175781 51.902344 23.71875 52.027344 23.199219 52.171875 C 22.328125 52.414062 21.398438 52.851562 20.785156 52.183594 C 20.488281 51.863281 19.894531 49.714844 19.828125 49.199219 Z M 7.164062 26.421875 C 7.164062 25.296875 7.671875 25.242188 8.949219 24.613281 C 9.332031 24.421875 9.628906 24.277344 10.011719 24.089844 C 10.320312 23.9375 10.84375 23.632812 11.144531 23.566406 C 11.179688 23.964844 11.398438 24.597656 11.507812 24.992188 C 12.140625 27.382812 12.941406 29.914062 13.546875 32.261719 C 13.664062 32.714844 13.789062 33.242188 13.9375 33.734375 L 14.359375 35.179688 C 15.0625 37.984375 16.03125 41.070312 16.785156 43.917969 L 17.582031 46.84375 L 12.664062 37.347656 C 12.042969 36.054688 7.164062 26.800781 7.164062 26.421875 Z M 11.722656 19.996094 C 11.722656 19.65625 11.699219 19.671875 11.835938 19.394531 C 12.171875 18.714844 13.507812 18.542969 14.53125 18.265625 C 15.628906 17.972656 16.808594 17.613281 17.945312 17.351562 L 17.945312 42.347656 C 17.765625 42.089844 16.367188 36.898438 16.355469 36.847656 C 15.855469 34.96875 15.335938 33.136719 14.792969 31.246094 C 14.015625 28.539062 13.238281 25.453125 12.453125 22.84375 C 12.308594 22.367188 12.203125 21.933594 12.070312 21.4375 C 11.964844 21.058594 11.722656 20.460938 11.722656 19.996094 Z M 42.476562 17.640625 C 42.476562 18.789062 42.425781 27.65625 42.507812 28.175781 C 42.570312 28.59375 42.570312 29.105469 42.507812 29.523438 L 42.476562 43.347656 C 42.476562 44.273438 42.476562 45.203125 42.476562 46.128906 C 42.476562 46.710938 42.535156 47.84375 41.320312 47.84375 L 20.625 47.84375 C 19.988281 47.84375 19.492188 47.382812 19.460938 46.777344 C 19.390625 45.253906 19.464844 41.667969 19.464844 39.988281 L 19.46875 30.28125 C 19.476562 29.894531 19.421875 29.777344 19.398438 29.488281 C 19.355469 28.976562 19.390625 28.300781 19.445312 27.902344 C 19.53125 27.285156 19.464844 16.570312 19.464844 14.710938 C 19.464844 14.035156 19.386719 13.730469 19.726562 13.324219 C 20.042969 12.9375 20.324219 12.917969 20.984375 12.925781 L 25.863281 12.894531 C 26.316406 12.957031 26.207031 12.832031 26.621094 12.855469 C 26.898438 12.871094 27.03125 12.925781 27.425781 12.925781 L 28.945312 12.851562 C 29.238281 12.851562 29.46875 12.925781 29.882812 12.925781 C 31.472656 12.925781 33.261719 12.988281 34.820312 12.863281 C 35.128906 12.835938 35.21875 12.921875 35.601562 12.929688 L 40.738281 12.925781 C 41.816406 12.925781 42.476562 13.003906 42.546875 14.351562 C 42.574219 14.878906 42.550781 15.53125 42.496094 15.945312 C 42.433594 16.402344 42.476562 17.148438 42.476562 17.640625 Z M 17.945312 14.140625 L 17.945312 15.851562 L 13.265625 17.09375 C 12.304688 17.367188 11.855469 17.390625 11.140625 17.921875 C 10.664062 18.28125 10.203125 19.097656 10.203125 19.921875 C 10.203125 20.675781 10.550781 21.476562 10.710938 22.136719 C 10.296875 22.230469 8.597656 23.160156 7.992188 23.457031 C 6.792969 24.046875 5.644531 24.589844 5.644531 26.351562 C 5.644531 27.070312 6.207031 27.964844 6.488281 28.515625 L 19.804688 54.507812 C 19.871094 54.625 19.878906 54.632812 19.933594 54.738281 C 20.695312 56.238281 21.292969 57.984375 23.300781 57.984375 C 23.972656 57.984375 24.375 57.742188 24.84375 57.507812 C 25.320312 57.273438 25.742188 57.066406 26.195312 56.839844 C 26.421875 56.730469 26.628906 56.625 26.863281 56.5 L 33.011719 53.429688 C 33.898438 52.90625 37.1875 51.320312 38.148438 50.859375 L 39.160156 50.355469 C 39.414062 50.222656 39.621094 50.109375 39.871094 49.988281 C 40.214844 49.820312 40.898438 49.421875 41.253906 49.351562 C 42.105469 49.179688 42.179688 49.265625 42.824219 48.832031 C 43.5 48.378906 44.355469 47.078125 44.355469 46.273438 C 44.355469 44.65625 43.984375 45.457031 43.996094 43.988281 L 43.996094 18.210938 C 43.996094 17.210938 44.121094 14.375 43.957031 13.609375 C 43.683594 12.34375 42.621094 11.425781 41.390625 11.425781 L 20.550781 11.425781 C 20.199219 11.425781 19.757812 11.554688 19.5 11.675781 C 18.828125 11.992188 18.492188 12.375 18.1875 13.019531 C 18.035156 13.332031 17.945312 13.707031 17.945312 14.140625 Z M 17.945312 14.140625 "/>
<path style=" stroke:none;fill-rule:evenodd;fill:rgb(76.078431%,57.254902%,8.627451%);fill-opacity:1;" d="M 1.445312 18.28125 L 1.445312 16.851562 C 1.898438 16.75 4.566406 15.242188 5.113281 14.972656 L 16.222656 9.226562 C 16.535156 9.039062 16.792969 8.933594 17.125 8.761719 C 19.269531 7.625 21.445312 6.578125 23.566406 5.402344 C 25.351562 4.417969 27.394531 3.550781 29.121094 2.53125 C 29.339844 2.398438 30.902344 1.605469 30.972656 1.605469 C 31.21875 1.605469 37.523438 4.984375 38.328125 5.378906 L 49.375 11.117188 C 51.25 12.039062 53.054688 13.085938 54.941406 13.976562 L 60.496094 16.851562 L 60.496094 18.28125 C 60.054688 18.179688 59.554688 17.832031 59.144531 17.613281 L 54.96875 15.449219 C 52.265625 14.113281 49.632812 12.667969 46.953125 11.292969 L 41.222656 8.304688 C 38.714844 7.070312 36.332031 5.710938 33.816406 4.476562 L 31.960938 3.523438 C 30.917969 3.011719 31.058594 2.996094 30.03125 3.5 C 29.734375 3.644531 29.417969 3.78125 29.121094 3.957031 C 27.636719 4.835938 26.019531 5.496094 24.527344 6.351562 C 24.222656 6.527344 23.898438 6.664062 23.574219 6.839844 L 20.867188 8.234375 C 20.496094 8.414062 20.289062 8.558594 19.921875 8.734375 L 12.566406 12.542969 C 12.21875 12.71875 12.007812 12.855469 11.675781 13.023438 C 11.324219 13.195312 11.046875 13.320312 10.722656 13.511719 C 10.417969 13.695312 10.164062 13.828125 9.824219 13.976562 C 9.160156 14.265625 8.621094 14.640625 7.976562 14.9375 L 3.324219 17.351562 C 2.992188 17.539062 1.757812 18.210938 1.445312 18.28125 Z M 0 16.351562 L 0 19.566406 C 0 19.984375 0.363281 20.253906 0.722656 20.25 C 1.082031 20.25 3.273438 19.019531 3.714844 18.804688 C 4.082031 18.625 4.304688 18.476562 4.652344 18.304688 C 5.035156 18.117188 5.296875 17.949219 5.644531 17.78125 C 8.191406 16.535156 10.921875 14.988281 13.433594 13.757812 L 23.15625 8.710938 C 23.492188 8.546875 23.789062 8.394531 24.101562 8.214844 C 24.417969 8.035156 24.78125 7.882812 25.109375 7.714844 C 25.851562 7.332031 30.753906 4.714844 30.972656 4.714844 C 31.199219 4.714844 32.714844 5.566406 32.996094 5.714844 L 39.078125 8.855469 C 39.421875 9.027344 39.683594 9.191406 40.066406 9.378906 L 42.574219 10.6875 C 42.773438 10.792969 42.898438 10.847656 43.101562 10.949219 C 43.480469 11.136719 43.730469 11.296875 44.089844 11.472656 L 60.230469 19.828125 C 60.652344 20.035156 61.25 20.519531 61.769531 20.042969 C 61.921875 19.90625 61.964844 19.738281 61.96875 19.488281 L 61.945312 16.492188 C 61.9375 15.890625 61.699219 15.835938 61.292969 15.640625 C 60.929688 15.464844 60.65625 15.3125 60.300781 15.117188 C 60.105469 15.007812 59.941406 14.945312 59.761719 14.863281 L 55.210938 12.5 C 54.875 12.324219 54.585938 12.152344 54.222656 11.972656 L 37.097656 3.09375 C 36.71875 2.910156 36.457031 2.742188 36.109375 2.570312 L 33.070312 1 C 32.664062 0.800781 31.230469 0 30.972656 0 C 30.710938 0 26.9375 2.023438 26.074219 2.453125 L 23.128906 3.972656 C 22.785156 4.148438 22.554688 4.296875 22.191406 4.476562 C 21.8125 4.660156 21.53125 4.804688 21.199219 4.996094 C 20.894531 5.171875 20.574219 5.304688 20.234375 5.472656 C 20.019531 5.582031 19.976562 5.625 19.777344 5.734375 C 19.589844 5.839844 19.421875 5.914062 19.25 5.996094 C 18.914062 6.164062 18.625 6.335938 18.308594 6.5 L 13.410156 9.019531 C 11.222656 10.109375 8.808594 11.472656 6.632812 12.542969 L 0.746094 15.589844 C 0.402344 15.757812 0 15.878906 0 16.351562 Z M 0 16.351562 "/>
<path style=" stroke:none;fill-rule:evenodd;fill:rgb(76.078431%,57.254902%,8.627451%);fill-opacity:1;" d="M 28.148438 26.421875 C 28.148438 24.144531 31.085938 22.640625 32.945312 24.472656 C 34.785156 26.289062 33.070312 28.074219 33.070312 28.496094 C 33.070312 29.761719 34.5 28.8125 35.824219 29.488281 C 38.234375 30.71875 37.65625 34.707031 34.734375 34.707031 C 34.34375 34.707031 33.953125 34.59375 33.707031 34.433594 C 33.425781 34.246094 33.222656 34.023438 33.027344 33.746094 C 32.816406 33.441406 32.75 33.175781 32.605469 32.804688 C 32.191406 31.746094 31.0625 32.265625 31.132812 33.039062 C 31.25 34.3125 31.894531 36.847656 31.910156 37.0625 L 30.03125 37.0625 C 30.105469 36.179688 31.144531 33.164062 30.65625 32.515625 C 30.390625 32.167969 29.734375 31.953125 29.351562 32.75 C 29.261719 32.9375 29.234375 33.050781 29.171875 33.214844 C 28.324219 35.292969 25.929688 35.039062 25.03125 33.496094 C 24.125 31.941406 24.730469 29.914062 26.582031 29.300781 C 27.566406 28.972656 28.875 29.664062 28.875 28.496094 C 28.875 28.0625 28.148438 27.472656 28.148438 26.421875 Z M 26.703125 26.207031 C 26.703125 27.222656 26.847656 27.433594 26.847656 27.777344 C 25.960938 27.800781 24.886719 28.433594 24.292969 29.042969 C 23.378906 29.988281 23.15625 31.027344 23.15625 32.277344 C 23.15625 34.238281 24.945312 36.132812 26.703125 36.132812 C 27.542969 36.132812 28.03125 36.179688 28.800781 35.777344 C 28.664062 36.347656 28.539062 36.859375 28.34375 37.402344 C 28.117188 38.035156 28.34375 38.5625 29.089844 38.5625 L 32.855469 38.5625 C 34.273438 38.5625 33.460938 37.015625 33.414062 36.863281 C 33.335938 36.582031 33.167969 36.109375 33.140625 35.777344 C 34.15625 36.304688 35.597656 36.257812 36.640625 35.730469 C 37.851562 35.121094 38.785156 33.730469 38.785156 32.277344 C 38.785156 30.933594 38.609375 30.078125 37.613281 29.007812 C 37.046875 28.40625 35.933594 27.796875 35.097656 27.777344 C 35.101562 27.40625 35.238281 27.167969 35.238281 26.136719 C 35.238281 24.191406 33.28125 22.210938 31.1875 22.210938 L 30.753906 22.210938 C 28.671875 22.210938 26.703125 24.148438 26.703125 26.207031 Z M 26.703125 26.207031 "/>
</g>
</svg>
