<?xml version="1.0" encoding="UTF-8"?>
<svg xmlns="http://www.w3.org/2000/svg" xmlns:xlink="http://www.w3.org/1999/xlink" width="83pt" height="83pt" viewBox="0 0 83 83" version="1.1">
<g id="surface1">
<path style=" stroke:none;fill-rule:evenodd;fill:rgb(76.078431%,57.254902%,8.627451%);fill-opacity:1;" d="M 6.800781 42.941406 C 6.800781 35.734375 7.378906 32.527344 10.054688 26.265625 C 11.515625 22.832031 14.703125 18.75 17.292969 16.1875 L 22.078125 12.429688 C 25.476562 10.15625 30.226562 8.1875 34.382812 7.414062 C 39.652344 6.4375 44.851562 6.589844 49.878906 7.6875 C 53.371094 8.453125 56.144531 9.707031 59.078125 11.308594 C 62.371094 13.097656 63.402344 14.199219 65.839844 16.40625 L 66.4375 16.988281 C 72.707031 23.769531 76.390625 31.574219 76.246094 41.550781 C 76.109375 50.914062 72.945312 59.476562 66.527344 65.894531 C 60.835938 71.585938 54.582031 74.78125 46.433594 75.933594 C 39.214844 76.953125 31.160156 75.546875 25.066406 72.363281 C 24.246094 71.9375 23.1875 71.339844 22.355469 70.796875 C 21.40625 70.175781 20.746094 69.652344 19.882812 69.007812 C 16.644531 66.597656 13.800781 63.28125 11.734375 59.832031 C 9.988281 56.910156 8.734375 53.984375 7.890625 50.632812 C 7.316406 48.371094 6.800781 45.617188 6.800781 42.941406 Z M 41.441406 83.035156 C 44.601562 83.035156 47.855469 82.558594 50.550781 81.941406 C 53.5625 81.257812 55.839844 80.28125 58.316406 79.277344 C 59.59375 78.757812 60.46875 78.164062 61.605469 77.582031 C 62.617188 77.0625 63.824219 76.246094 64.792969 75.546875 C 65.921875 74.722656 66.75 74.101562 67.777344 73.3125 L 70.714844 70.558594 C 70.84375 70.429688 70.9375 70.320312 71.058594 70.1875 C 74.488281 66.398438 76.796875 63.691406 79.082031 58.761719 C 84.039062 48.078125 84.441406 34.972656 79.085938 24.273438 C 77.019531 20.148438 75.78125 18.332031 73.03125 14.90625 C 72.601562 14.375 72.226562 14.089844 71.742188 13.585938 C 71.167969 12.992188 71.105469 12.664062 70.554688 12.167969 L 67.914062 9.824219 C 60.152344 3.761719 52.410156 0 41.441406 0 C 4.941406 0 -17.707031 48.390625 17.847656 75.308594 C 23.882812 79.878906 33.28125 83.035156 41.441406 83.035156 Z M 41.441406 83.035156 "/>
<path style=" stroke:none;fill-rule:evenodd;fill:rgb(76.078431%,57.254902%,8.627451%);fill-opacity:1;" d="M 27.679688 30.84375 C 26.496094 31.46875 25.015625 32.664062 24.058594 33.628906 C 20.578125 37.132812 18.265625 41.425781 17.941406 46.96875 C 17.527344 54.117188 20.113281 60.253906 25.742188 64.804688 C 34.820312 72.144531 48.328125 70.542969 55.203125 61.453125 C 55.628906 60.890625 56.261719 60.113281 56.613281 59.542969 L 58.757812 55.039062 C 57.972656 54.621094 57.296875 54.476562 56.28125 54.195312 C 55.445312 53.957031 54.140625 53.671875 53.535156 53.382812 C 52.101562 55.523438 51.878906 57.722656 48.460938 60.402344 C 43.929688 63.953125 37.667969 64.992188 32.417969 62.398438 C 26.902344 59.675781 23.410156 54.796875 23.410156 48.394531 C 23.410156 41.8125 26.882812 37.871094 31.710938 34.640625 C 32.40625 35.675781 33.886719 36.933594 34.855469 37.898438 C 39.433594 42.476562 38.355469 41.878906 38.355469 26.09375 C 38.355469 24.710938 35.621094 25.683594 32.960938 25.316406 C 32.222656 25.21875 24.636719 24.847656 23.519531 25.507812 C 22.503906 26.109375 26.433594 28.980469 27.679688 30.84375 Z M 27.679688 30.84375 "/>
<path style=" stroke:none;fill-rule:evenodd;fill:rgb(76.078431%,57.254902%,8.627451%);fill-opacity:1;" d="M 42.859375 29.890625 C 45.242188 29.890625 46.792969 30.128906 49.265625 30.128906 L 46.84375 38.382812 C 46.6875 38.953125 46.195312 40.761719 45.945312 41.28125 C 47.0625 40.980469 59.355469 29.429688 61.425781 27.339844 C 61.835938 26.925781 62.085938 26.648438 62.523438 26.304688 C 63.128906 25.835938 63.273438 26.007812 63.5 25.148438 L 54.960938 25.148438 C 55.050781 24.035156 59.34375 15.550781 60.417969 13.519531 C 59.304688 13.820312 58.320312 15.398438 57.152344 16.425781 L 44.996094 27.757812 C 44.210938 28.359375 43.417969 29.0625 42.859375 29.890625 Z M 42.859375 29.890625 "/>
<path style=" stroke:none;fill-rule:evenodd;fill:rgb(76.078431%,57.254902%,8.627451%);fill-opacity:1;" d="M 43.574219 47.6875 L 43.574219 51.007812 L 41.199219 51.007812 C 41.652344 50.15625 42.859375 48.164062 43.574219 47.6875 Z M 38.828125 51.484375 L 38.828125 53.144531 L 43.574219 53.144531 L 43.574219 55.515625 L 46.183594 55.515625 L 46.183594 53.144531 L 47.609375 53.144531 L 47.609375 51.007812 L 46.183594 51.007812 L 46.183594 43.890625 C 46.183594 43.015625 45.675781 43.179688 44.523438 43.179688 C 43.875 43.179688 43.554688 43.921875 42.90625 44.882812 L 40.050781 49.144531 C 39.582031 49.769531 38.828125 50.503906 38.828125 51.484375 Z M 38.828125 51.484375 "/>
<path style=" stroke:none;fill-rule:evenodd;fill:rgb(76.078431%,57.254902%,8.627451%);fill-opacity:1;" d="M 29.8125 46.976562 C 30.75 47.050781 30.925781 47.210938 32.183594 47.210938 C 32.917969 44.066406 35.273438 45.652344 35.273438 46.734375 C 35.273438 48.507812 33.144531 49.929688 32.125 50.941406 C 29.695312 53.359375 30.195312 53.730469 29.339844 55.515625 C 30.839844 55.515625 32.34375 55.515625 33.847656 55.515625 C 38.136719 55.515625 37.878906 55.984375 37.878906 53.855469 C 37.878906 52.636719 36.816406 53.332031 35.992188 53.347656 C 35.289062 53.359375 34.507812 53.144531 33.375 53.144531 C 35.246094 50.34375 37.644531 50.488281 37.644531 46.261719 C 37.644531 42.375 29.8125 41.945312 29.8125 46.976562 Z M 29.8125 46.976562 "/>
<path style=" stroke:none;fill-rule:evenodd;fill:rgb(76.078431%,57.254902%,8.627451%);fill-opacity:1;" d="M 54.722656 45.550781 L 54.488281 49.820312 C 55.335938 50.226562 57.292969 50.613281 58.472656 50.859375 C 59.59375 51.09375 59.734375 51.375 59.960938 50.082031 C 60.355469 47.871094 60.113281 47 59.898438 44.84375 C 58.230469 44.839844 56.429688 45.511719 54.722656 45.550781 Z M 54.722656 45.550781 "/>
</g>
</svg>
