<?xml version="1.0" encoding="UTF-8"?>
<svg xmlns="http://www.w3.org/2000/svg" xmlns:xlink="http://www.w3.org/1999/xlink" width="83pt" height="83pt" viewBox="0 0 83 83" version="1.1">
<g id="surface1">
<path style=" stroke:none;fill-rule:evenodd;fill:rgb(76.078431%,57.254902%,8.627451%);fill-opacity:1;" d="M 25.449219 18.667969 C 22.253906 18.40625 14.621094 9.574219 12.03125 6.914062 C 10.273438 5.109375 9.480469 3.164062 6.6875 4.5 C 7.503906 7.546875 12.328125 11.082031 14.613281 13.355469 C 15.875 14.617188 23.714844 21.261719 21.324219 22.179688 C 18.160156 23.394531 7.769531 5.949219 3.453125 7.726562 C 2.410156 10.242188 6.507812 13.019531 10.085938 16.574219 C 11.441406 17.929688 18.5625 23.996094 17.972656 25.515625 C 16.613281 29.046875 4.375 12.046875 0.222656 10.945312 C -1.324219 14.15625 5.671875 19.269531 10.40625 23.984375 C 21.914062 35.4375 17.839844 32.027344 25.449219 30.261719 L 63.15625 69.992188 C 65.027344 72.226562 67.46875 74.355469 69.59375 76.464844 C 70.824219 77.671875 71.726562 78.433594 72.753906 79.753906 C 74.339844 81.785156 74.402344 83.066406 77.195312 83.066406 C 78.777344 83.066406 83.019531 78.84375 83.019531 77.269531 C 83.019531 75.308594 66.792969 61.03125 63.453125 58.105469 L 36.605469 32.675781 C 34.039062 30.117188 32.539062 28.085938 29.324219 26.394531 C 33.738281 18.09375 30.253906 17.984375 21.730469 9.496094 C 19.484375 7.261719 13.777344 0.675781 11.214844 -0.0078125 C 9.765625 3 12.820312 4.492188 17.519531 9.171875 C 20.734375 12.371094 25.203125 15.714844 25.449219 18.667969 Z M 25.449219 18.667969 "/>
<path style=" stroke:none;fill-rule:evenodd;fill:rgb(76.078431%,57.254902%,8.627451%);fill-opacity:1;" d="M 37.734375 30.261719 C 40.132812 33.824219 43.84375 36.878906 47.441406 39.277344 C 50.308594 37.359375 73.398438 13.601562 78.65625 8.523438 C 83.328125 4.023438 82.679688 4.5 73.957031 4.5 C 57.957031 4.5 47.144531 23.988281 37.734375 30.261719 Z M 37.734375 30.261719 "/>
<path style=" stroke:none;fill-rule:evenodd;fill:rgb(76.078431%,57.254902%,8.627451%);fill-opacity:1;" d="M 0.222656 72.117188 C 1.050781 75.65625 3.820312 77.6875 6.6875 79.199219 C 10.230469 77.328125 37.25 50.292969 39.03125 47.648438 L 33.359375 41.703125 L 21.011719 52.898438 C 19.015625 54.484375 18.390625 54.957031 16.550781 56.824219 L 8.480469 64.238281 C 5.625 67.058594 2.511719 68.710938 0.222656 72.117188 Z M 0.222656 72.117188 "/>
</g>
</svg>
